<svg width="32" height="32" viewBox="0 0 32 32" fill="none" xmlns="http://www.w3.org/2000/svg">
<path fill-rule="evenodd" clip-rule="evenodd" d="M4 9.00968C4 8.17321 4.67809 7.49512 5.51456 7.49512H26.4854C27.3219 7.49512 28 8.17321 28 9.00968C28 9.84615 27.3219 10.5242 26.4854 10.5242H5.51456C4.67809 10.5242 4 9.84615 4 9.00968ZM4 16C4 15.1635 4.67809 14.4854 5.51456 14.4854H26.4854C27.3219 14.4854 28 15.1635 28 16C28 16.8364 27.3219 17.5145 26.4854 17.5145H5.51456C4.67809 17.5145 4 16.8364 4 16ZM4 22.9903C4 22.1538 4.67809 21.4757 5.51456 21.4757H26.4854C27.3219 21.4757 28 22.1538 28 22.9903C28 23.8267 27.3219 24.5048 26.4854 24.5048H5.51456C4.67809 24.5048 4 23.8267 4 22.9903Z" fill="#585659"/>
</svg>
